<svg width="128" height="128" viewBox="0 0 128 128" fill="none" xmlns="http://www.w3.org/2000/svg">
<rect width="128" height="128" rx="28" fill="#006EEF"/>
<path d="M22.2822 47.2889C22.2822 46.5034 22.919 45.8666 23.7044 45.8666H41.8378C42.6233 45.8666 43.26 46.5034 43.26 47.2889V65.4222C43.26 66.2077 42.6233 66.8444 41.8378 66.8444H30.1044C25.7844 66.8444 22.2822 63.3423 22.2822 59.0222V47.2889Z" fill="white"/>
<path d="M43.2603 67.5487C43.2603 67.0784 43.4978 66.6484 43.8795 66.3737C55.5264 57.9906 56.6752 44.3986 72.254 45.9957C72.9563 46.0677 73.4825 46.6711 73.4825 47.377C73.4825 53.9015 73.4825 61.5114 73.4825 65.274C73.4825 66.2216 72.5545 66.8753 71.608 66.919C63.8889 67.2756 63.067 85.825 44.7617 87.7078C43.9524 87.7911 43.2603 87.1494 43.2603 86.3359C43.2603 82.2262 43.2603 70.7994 43.2603 67.5487Z" fill="white"/>
<path d="M73.4819 67.5487C73.4819 67.0784 73.7195 66.6484 74.1012 66.3737C85.7481 57.9906 86.8969 44.3986 102.476 45.9957C103.178 46.0677 103.704 46.6711 103.704 47.377C103.704 53.9015 103.704 61.5114 103.704 65.274C103.704 66.2216 102.776 66.8753 101.83 66.919C94.1106 67.2756 93.2887 85.825 74.9833 87.7078C74.174 87.7911 73.4819 87.1494 73.4819 86.3359C73.4819 82.2262 73.4819 70.7994 73.4819 67.5487Z" fill="white"/>
</svg>
